<svg id="Capa_1" enable-background="new 0 0 512 512" height="512" viewBox="0 0 512 512" width="512" xmlns="http://www.w3.org/2000/svg"><g><path d="m256 180c-34.159 0-62.248 26.486-64.81 60h129.62c-2.562-33.514-30.651-60-64.81-60z"/><circle cx="256" cy="120" r="30"/><path d="m396 482h-113.47l126.816-210.776c33.703-56.016 34.615-123.434 2.44-180.341s-90.412-90.883-155.786-90.883-123.611 33.975-155.786 90.882-31.263 124.325 2.44 180.341l126.816 210.777h-113.47c-8.284 0-15 6.716-15 15s6.716 15 15 15h280c8.284 0 15-6.716 15-15s-6.716-15-15-15zm-235-227v-10c0-36.538 20.737-68.318 51.057-84.205-9.954-10.714-16.057-25.052-16.057-40.795 0-33.084 26.916-60 60-60s60 26.916 60 60c0 15.743-6.103 30.081-16.057 40.795 30.32 15.887 51.057 47.667 51.057 84.205v10c0 8.284-6.716 15-15 15h-160c-8.284 0-15-6.716-15-15z"/></g></svg>